<svg xmlns="http://www.w3.org/2000/svg" viewBox="0 0 322.98 80.63"><defs><style>.cls-1{fill:#c12f38;}</style></defs><g id="Calque_2" data-name="Calque 2"><g id="Calque_1-2" data-name="Calque 1"><path class="cls-1" d="M68.31,40.37a44.37,44.37,0,0,1-2.8,16.11,35.56,35.56,0,0,1-7.93,12.43,35.16,35.16,0,0,1-12.26,8,42.65,42.65,0,0,1-15.84,2.83H0V.93H29.48A42.65,42.65,0,0,1,45.32,3.77a34.93,34.93,0,0,1,12.26,8,35.83,35.83,0,0,1,7.93,12.45A44.42,44.42,0,0,1,68.31,40.37Zm-10.94,0a39.54,39.54,0,0,0-2-13,27.54,27.54,0,0,0-5.61-9.68A24,24,0,0,0,41,11.66a30.5,30.5,0,0,0-11.5-2.09H10.73V71.11H29.48A30.31,30.31,0,0,0,41,69a24.2,24.2,0,0,0,8.8-6,27.22,27.22,0,0,0,5.61-9.65A39.54,39.54,0,0,0,57.37,40.37Z"/><path class="cls-1" d="M117.7,13.25a4.17,4.17,0,0,1-1,1.24,2.27,2.27,0,0,1-1.43.41,3.84,3.84,0,0,1-2.17-.93,34.86,34.86,0,0,0-3.13-2.06,26.2,26.2,0,0,0-4.57-2.07,19.73,19.73,0,0,0-6.46-.93,19.23,19.23,0,0,0-6.33,1A13.45,13.45,0,0,0,88,12.48a10.84,10.84,0,0,0-2.78,3.88,12.38,12.38,0,0,0-.93,4.81,8.93,8.93,0,0,0,1.62,5.48,14,14,0,0,0,4.29,3.71,32.73,32.73,0,0,0,6,2.67l6.93,2.33q3.55,1.22,6.93,2.73a24.35,24.35,0,0,1,6,3.82,17.43,17.43,0,0,1,4.29,5.66A18.9,18.9,0,0,1,122,55.82a26.45,26.45,0,0,1-1.76,9.71,22.15,22.15,0,0,1-5.14,7.89,23.91,23.91,0,0,1-8.3,5.28,30.48,30.48,0,0,1-11.2,1.93A34.22,34.22,0,0,1,81.7,77.85,32.56,32.56,0,0,1,71,70.34L74,65.28a4,4,0,0,1,1.07-1,2.48,2.48,0,0,1,1.4-.42,4.41,4.41,0,0,1,2.64,1.24,42.41,42.41,0,0,0,3.72,2.72,28.45,28.45,0,0,0,5.39,2.73A21.33,21.33,0,0,0,96,71.77a20.27,20.27,0,0,0,6.77-1,14.43,14.43,0,0,0,5-2.94,12.69,12.69,0,0,0,3.16-4.54,15,15,0,0,0,1.1-5.89,9.87,9.87,0,0,0-1.62-5.85,13.5,13.5,0,0,0-4.26-3.83,30.57,30.57,0,0,0-6-2.61l-6.93-2.2a68.54,68.54,0,0,1-6.93-2.61,22.4,22.4,0,0,1-6-3.85A17.74,17.74,0,0,1,76,30.5a21.12,21.12,0,0,1-1.62-8.78,21,21,0,0,1,6.32-15A22.87,22.87,0,0,1,88.3,1.87,27.92,27.92,0,0,1,98.72.05a33.46,33.46,0,0,1,12,2.09,27.78,27.78,0,0,1,9.51,6Z"/><path class="cls-1" d="M155.57,29a15,15,0,0,0,3.56-.37,14.8,14.8,0,0,0,2.89-1V21.67H158a1.25,1.25,0,0,1-.92-.33,1.05,1.05,0,0,1-.34-.8V17.12h10.82V30.29a17.44,17.44,0,0,1-2.57,1.56,16.58,16.58,0,0,1-2.86,1.09,21,21,0,0,1-3.25.64,31.2,31.2,0,0,1-3.74.21,17,17,0,0,1-6.54-1.23,15.65,15.65,0,0,1-5.18-3.44A15.81,15.81,0,0,1,140,23.85a17.76,17.76,0,0,1-1.22-6.68,18.27,18.27,0,0,1,1.19-6.73,15.11,15.11,0,0,1,3.38-5.26,15.2,15.2,0,0,1,5.33-3.43,19.22,19.22,0,0,1,7-1.21,18.23,18.23,0,0,1,6.89,1.18,16,16,0,0,1,4.94,3.07l-1.75,2.75a1.59,1.59,0,0,1-1.38.83,2,2,0,0,1-1.1-.36l-1.47-.85a9.82,9.82,0,0,0-1.67-.75,13.06,13.06,0,0,0-2.05-.51,14.48,14.48,0,0,0-2.62-.21,11.24,11.24,0,0,0-4.35.81,9.31,9.31,0,0,0-3.32,2.32,10.47,10.47,0,0,0-2.11,3.62,14.1,14.1,0,0,0-.75,4.73,14.86,14.86,0,0,0,.79,5,10.53,10.53,0,0,0,2.21,3.71,9.5,9.5,0,0,0,3.37,2.3A11.28,11.28,0,0,0,155.57,29Z"/><path class="cls-1" d="M178.76,0V33.44h-5.55V0Z"/><path class="cls-1" d="M194.89,10a12.81,12.81,0,0,1,4.7.83,10.19,10.19,0,0,1,3.58,2.37,10.45,10.45,0,0,1,2.3,3.73,14.2,14.2,0,0,1,.81,4.93,14.28,14.28,0,0,1-.81,4.95,10.76,10.76,0,0,1-2.3,3.76,10,10,0,0,1-3.58,2.38,13.72,13.72,0,0,1-9.4,0,10.06,10.06,0,0,1-3.61-2.38,10.8,10.8,0,0,1-2.32-3.76,14.27,14.27,0,0,1-.82-4.95,14.2,14.2,0,0,1,.82-4.93,10.49,10.49,0,0,1,2.32-3.73,10.31,10.31,0,0,1,3.61-2.37A12.85,12.85,0,0,1,194.89,10Zm0,19.51a4.91,4.91,0,0,0,4.27-1.94,9.72,9.72,0,0,0,1.38-5.67,9.81,9.81,0,0,0-1.38-5.69,5.68,5.68,0,0,0-8.59,0,9.76,9.76,0,0,0-1.39,5.68,9.65,9.65,0,0,0,1.39,5.66A5,5,0,0,0,194.89,29.5Z"/><path class="cls-1" d="M210.69,33.44V0h5.56V13.19a10.71,10.71,0,0,1,3.1-2.33A9,9,0,0,1,223.4,10a7.61,7.61,0,0,1,3.45.78,7.47,7.47,0,0,1,2.7,2.26,10.75,10.75,0,0,1,1.76,3.66,18.58,18.58,0,0,1,.62,5,15.58,15.58,0,0,1-.7,4.79,11.6,11.6,0,0,1-2,3.83,9.23,9.23,0,0,1-3.13,2.53,9,9,0,0,1-4.1.91,8.36,8.36,0,0,1-1.94-.21,6.62,6.62,0,0,1-1.6-.6,6.7,6.7,0,0,1-1.34-.93A12.58,12.58,0,0,1,216,30.8l-.24,1.55a1.4,1.4,0,0,1-.47.84,1.44,1.44,0,0,1-.88.25Zm10.8-19.13a5.65,5.65,0,0,0-3,.73,8.56,8.56,0,0,0-2.28,2.06V27.45a5.3,5.3,0,0,0,2.05,1.63,6.25,6.25,0,0,0,2.42.46,5.29,5.29,0,0,0,2.28-.47,4.54,4.54,0,0,0,1.72-1.44,7.24,7.24,0,0,0,1.09-2.44,14.19,14.19,0,0,0,.38-3.48,15.27,15.27,0,0,0-.33-3.43,6.32,6.32,0,0,0-.93-2.28,3.68,3.68,0,0,0-1.47-1.29A4.62,4.62,0,0,0,221.49,14.31Z"/><path class="cls-1" d="M254.36,33.44h-2.5a2.63,2.63,0,0,1-1.23-.24,1.51,1.51,0,0,1-.68-1l-.49-1.64A16.83,16.83,0,0,1,247.73,32,10.14,10.14,0,0,1,246,33a8.69,8.69,0,0,1-1.91.61,11.21,11.21,0,0,1-2.25.2,8.9,8.9,0,0,1-2.7-.39A5.81,5.81,0,0,1,237,32.22a5.48,5.48,0,0,1-1.38-2,7,7,0,0,1-.5-2.73,5.41,5.41,0,0,1,.69-2.59,6.56,6.56,0,0,1,2.28-2.3,14.67,14.67,0,0,1,4.26-1.7,27.12,27.12,0,0,1,6.59-.68V18.89a5.18,5.18,0,0,0-1-3.46,3.56,3.56,0,0,0-2.85-1.12,7.18,7.18,0,0,0-2.25.31,9.53,9.53,0,0,0-1.56.71c-.44.27-.85.5-1.23.71a2.45,2.45,0,0,1-1.23.32,1.58,1.58,0,0,1-1-.3,2.2,2.2,0,0,1-.65-.71l-1-1.78a13.75,13.75,0,0,1,9.61-3.65,9.15,9.15,0,0,1,3.61.67,7.54,7.54,0,0,1,2.69,1.84,8,8,0,0,1,1.68,2.82,11,11,0,0,1,.57,3.6ZM243.56,30a7.17,7.17,0,0,0,1.58-.16,5.89,5.89,0,0,0,1.36-.46,7.56,7.56,0,0,0,1.23-.76,12.9,12.9,0,0,0,1.21-1.08V23.65a22.92,22.92,0,0,0-4.06.3,10.8,10.8,0,0,0-2.62.79,3.29,3.29,0,0,0-1.41,1.11,2.78,2.78,0,0,0,.45,3.49A3.76,3.76,0,0,0,243.56,30Z"/><path class="cls-1" d="M265.75,0V33.44h-5.56V0Z"/><path class="cls-1" d="M157.25,53.42a1.59,1.59,0,0,1-.57.7,1.42,1.42,0,0,1-.78.2,1.92,1.92,0,0,1-1-.35c-.37-.23-.82-.49-1.33-.77a10,10,0,0,0-1.79-.78,7.52,7.52,0,0,0-2.41-.35,6.91,6.91,0,0,0-2.2.31,4.53,4.53,0,0,0-1.57.84,3.36,3.36,0,0,0-1,1.29,4.3,4.3,0,0,0-.31,1.66,2.86,2.86,0,0,0,.64,1.91,5.23,5.23,0,0,0,1.7,1.31,15,15,0,0,0,2.4,1c.9.29,1.82.59,2.76.91a27.55,27.55,0,0,1,2.76,1.13A9.55,9.55,0,0,1,157,64a7.25,7.25,0,0,1,1.7,2.4,8.25,8.25,0,0,1,.64,3.44,11.3,11.3,0,0,1-.75,4.13,9.57,9.57,0,0,1-2.2,3.35,10.47,10.47,0,0,1-3.55,2.25,13,13,0,0,1-4.79.82,15.56,15.56,0,0,1-3.06-.3,16.12,16.12,0,0,1-2.89-.87,14.12,14.12,0,0,1-2.59-1.35,12.82,12.82,0,0,1-2.15-1.75l1.76-2.91a2.31,2.31,0,0,1,.59-.53,1.47,1.47,0,0,1,.78-.21,2.11,2.11,0,0,1,1.21.46c.44.31.95.65,1.54,1a12.46,12.46,0,0,0,2.1,1,8,8,0,0,0,2.89.46,5.91,5.91,0,0,0,4-1.23,4.38,4.38,0,0,0,1.42-3.52,3.26,3.26,0,0,0-.64-2.09,5.19,5.19,0,0,0-1.7-1.36,12.11,12.11,0,0,0-2.41-.93c-.9-.26-1.81-.54-2.74-.84a23.74,23.74,0,0,1-2.75-1.08,8.66,8.66,0,0,1-2.4-1.64,7.27,7.27,0,0,1-1.7-2.53,9.6,9.6,0,0,1-.64-3.75,8.88,8.88,0,0,1,.7-3.46,9,9,0,0,1,2.07-3,10.39,10.39,0,0,1,3.35-2.1,12.24,12.24,0,0,1,4.52-.78,15.18,15.18,0,0,1,5.31.9,12,12,0,0,1,4.14,2.52Z"/><path class="cls-1" d="M173.5,56.6a12.55,12.55,0,0,1,4.69.83,10.07,10.07,0,0,1,3.59,2.36,10.47,10.47,0,0,1,2.29,3.74,15.44,15.44,0,0,1,0,9.87,10.64,10.64,0,0,1-2.29,3.76,10,10,0,0,1-3.59,2.39,12.76,12.76,0,0,1-4.69.83,12.9,12.9,0,0,1-4.71-.83,10.09,10.09,0,0,1-3.61-2.39,10.69,10.69,0,0,1-2.31-3.76,15.09,15.09,0,0,1,0-9.87,10.51,10.51,0,0,1,2.31-3.74,10.15,10.15,0,0,1,3.61-2.36A12.7,12.7,0,0,1,173.5,56.6Zm0,19.5a4.87,4.87,0,0,0,4.26-1.93,9.72,9.72,0,0,0,1.39-5.67,9.81,9.81,0,0,0-1.39-5.69,4.85,4.85,0,0,0-4.26-2,4.92,4.92,0,0,0-4.32,2,9.74,9.74,0,0,0-1.4,5.68,9.67,9.67,0,0,0,1.4,5.66A5,5,0,0,0,173.5,76.1Z"/><path class="cls-1" d="M195.14,46.61V80h-5.56V46.61Z"/><path class="cls-1" d="M206.5,57V71.63a4.93,4.93,0,0,0,1,3.27,3.65,3.65,0,0,0,2.94,1.16,6,6,0,0,0,2.7-.64,9.49,9.49,0,0,0,2.38-1.77V57h5.56V80h-3.4a1.36,1.36,0,0,1-1.41-1l-.39-1.85a16.47,16.47,0,0,1-1.48,1.32,9.2,9.2,0,0,1-1.63,1,8.6,8.6,0,0,1-1.87.65,9.2,9.2,0,0,1-2.15.24,8.16,8.16,0,0,1-3.34-.64A6.69,6.69,0,0,1,203,78a8,8,0,0,1-1.5-2.78,11.65,11.65,0,0,1-.5-3.54V57Z"/><path class="cls-1" d="M234.58,80.4A6.08,6.08,0,0,1,230,78.7,6.5,6.5,0,0,1,228.35,74V61.12H226a1.05,1.05,0,0,1-1.1-1.17V57.74l3.71-.6,1.17-6.3a1.1,1.1,0,0,1,.42-.7,1.27,1.27,0,0,1,.82-.25h2.88v7.27H240v4h-6.07V73.63a2.47,2.47,0,0,0,.54,1.69,1.84,1.84,0,0,0,1.44.6,2.66,2.66,0,0,0,.86-.12,4,4,0,0,0,.61-.26l.46-.26a.81.81,0,0,1,.41-.12.63.63,0,0,1,.4.12,1.79,1.79,0,0,1,.34.37l1.67,2.7a8.24,8.24,0,0,1-2.79,1.53A10.27,10.27,0,0,1,234.58,80.4Z"/><path class="cls-1" d="M251.17,50.23a3.1,3.1,0,0,1-.3,1.35,3.58,3.58,0,0,1-.77,1.1,3.53,3.53,0,0,1-1.14.75,3.43,3.43,0,0,1-1.39.29,3.37,3.37,0,0,1-1.37-.29,3.55,3.55,0,0,1-1.86-1.85,3.23,3.23,0,0,1-.28-1.35,3.56,3.56,0,0,1,1-2.52A3.71,3.71,0,0,1,246.2,47a3.53,3.53,0,0,1,1.37-.28A3.59,3.59,0,0,1,249,47a3.73,3.73,0,0,1,1.14.76,3.55,3.55,0,0,1,.77,1.12A3.32,3.32,0,0,1,251.17,50.23ZM250.33,57V80h-5.55V57Z"/><path class="cls-1" d="M266.47,56.6a12.59,12.59,0,0,1,4.69.83,10.07,10.07,0,0,1,3.59,2.36A10.61,10.61,0,0,1,277,63.53a15.44,15.44,0,0,1,0,9.87,10.79,10.79,0,0,1-2.29,3.76,10,10,0,0,1-3.59,2.39,13.72,13.72,0,0,1-9.4,0,10.09,10.09,0,0,1-3.61-2.39,10.71,10.71,0,0,1-2.32-3.76,15.26,15.26,0,0,1,0-9.87,10.53,10.53,0,0,1,2.32-3.74,10.15,10.15,0,0,1,3.61-2.36A12.66,12.66,0,0,1,266.47,56.6Zm0,19.5a4.87,4.87,0,0,0,4.26-1.93,9.72,9.72,0,0,0,1.38-5.67,9.81,9.81,0,0,0-1.38-5.69,4.85,4.85,0,0,0-4.26-2,4.9,4.9,0,0,0-4.32,2,9.74,9.74,0,0,0-1.4,5.68,9.67,9.67,0,0,0,1.4,5.66A4.93,4.93,0,0,0,266.47,76.1Z"/><path class="cls-1" d="M282.19,80V57h3.4A1.36,1.36,0,0,1,287,58l.38,1.82a12.79,12.79,0,0,1,1.47-1.3,10.78,10.78,0,0,1,1.65-1,8.43,8.43,0,0,1,1.85-.65,9.75,9.75,0,0,1,2.16-.22,8.21,8.21,0,0,1,3.35.64,6.51,6.51,0,0,1,2.45,1.8,8,8,0,0,1,1.48,2.76,11.76,11.76,0,0,1,.51,3.55V80h-5.56V65.35a5,5,0,0,0-1-3.28,3.63,3.63,0,0,0-2.94-1.15,5.72,5.72,0,0,0-2.7.65,9.54,9.54,0,0,0-2.38,1.78V80Z"/><path class="cls-1" d="M321.48,61.46a1.45,1.45,0,0,1-.48.5,1.18,1.18,0,0,1-.63.15,2,2,0,0,1-.86-.23l-1.07-.5a10,10,0,0,0-1.38-.51,6.68,6.68,0,0,0-1.84-.22,4.33,4.33,0,0,0-2.59.69,2.18,2.18,0,0,0-.94,1.83,1.72,1.72,0,0,0,.48,1.24,4.26,4.26,0,0,0,1.29.89,11.42,11.42,0,0,0,1.81.69q1,.3,2.07.66c.7.24,1.39.52,2.07.82a7.4,7.4,0,0,1,1.81,1.17,5.52,5.52,0,0,1,1.28,1.7,5.45,5.45,0,0,1,.48,2.39,7.75,7.75,0,0,1-.6,3.07,6.77,6.77,0,0,1-1.78,2.43,8.56,8.56,0,0,1-2.89,1.6,12.59,12.59,0,0,1-3.95.57,12.78,12.78,0,0,1-2.33-.21,14,14,0,0,1-2.18-.6,11.5,11.5,0,0,1-1.94-.9,9.44,9.44,0,0,1-1.56-1.12L307,75.45a1.81,1.81,0,0,1,.59-.58,1.57,1.57,0,0,1,.85-.21,1.76,1.76,0,0,1,1,.3c.31.19.66.4,1.07.63a10.31,10.31,0,0,0,1.43.63,6.43,6.43,0,0,0,2.08.29,5.32,5.32,0,0,0,1.7-.24,3.6,3.6,0,0,0,1.17-.62,2.21,2.21,0,0,0,.67-.89,2.49,2.49,0,0,0,.22-1,1.85,1.85,0,0,0-.49-1.33,4.4,4.4,0,0,0-1.28-.9,13.93,13.93,0,0,0-1.82-.69q-1-.3-2.1-.66A20.72,20.72,0,0,1,310,69.3a6.94,6.94,0,0,1-1.82-1.23,5.48,5.48,0,0,1-1.28-1.82,6.4,6.4,0,0,1-.49-2.61,6.54,6.54,0,0,1,.57-2.7,6.22,6.22,0,0,1,1.65-2.24,8.11,8.11,0,0,1,2.72-1.53,11.45,11.45,0,0,1,3.77-.57,11.6,11.6,0,0,1,4.34.78,10,10,0,0,1,3.27,2.07Z"/></g></g></svg>